<mxfile host="app.diagrams.net" agent="Mozilla/5.0 (Windows NT 10.0; Win64; x64) AppleWebKit/537.36 (KHTML, like Gecko) Chrome/134.0.0.0 Safari/537.36 Edg/134.0.0.0" version="26.2.13">
  <diagram name="Page-1" id="XP85PDWjsQwwhpaHkZFH">
    <mxGraphModel dx="1689" dy="952" grid="1" gridSize="10" guides="1" tooltips="1" connect="1" arrows="1" fold="1" page="1" pageScale="1" pageWidth="850" pageHeight="1100" math="0" shadow="0">
      <root>
        <mxCell id="0" />
        <mxCell id="1" parent="0" />
        <mxCell id="aFoQKnHjFwVq2BJ087v2-57" style="edgeStyle=orthogonalEdgeStyle;rounded=0;orthogonalLoop=1;jettySize=auto;html=1;entryX=0;entryY=0.5;entryDx=0;entryDy=0;" parent="1" source="aFoQKnHjFwVq2BJ087v2-1" target="aFoQKnHjFwVq2BJ087v2-14" edge="1">
          <mxGeometry relative="1" as="geometry">
            <Array as="points">
              <mxPoint x="180" y="370" />
              <mxPoint x="180" y="520" />
            </Array>
          </mxGeometry>
        </mxCell>
        <mxCell id="aFoQKnHjFwVq2BJ087v2-1" value="Case ID List" style="whiteSpace=wrap;html=1;aspect=fixed;" parent="1" vertex="1">
          <mxGeometry x="60" y="330" width="80" height="80" as="geometry" />
        </mxCell>
        <mxCell id="aFoQKnHjFwVq2BJ087v2-16" value="" style="group;" parent="1" vertex="1" connectable="0">
          <mxGeometry x="240" y="310" width="1250" height="420" as="geometry" />
        </mxCell>
        <mxCell id="aFoQKnHjFwVq2BJ087v2-14" value="Multiprocessing Function" style="swimlane;whiteSpace=wrap;html=1;startSize=23;fillColor=#dae8fc;strokeColor=#6c8ebf;" parent="aFoQKnHjFwVq2BJ087v2-16" vertex="1">
          <mxGeometry x="-30" width="1261.04" height="420" as="geometry" />
        </mxCell>
        <mxCell id="aFoQKnHjFwVq2BJ087v2-46" value="Worker Function" style="swimlane;horizontal=0;whiteSpace=wrap;html=1;fillColor=#e1d5e7;strokeColor=#9673a6;" parent="aFoQKnHjFwVq2BJ087v2-14" vertex="1">
          <mxGeometry x="40" y="40" width="1190" height="190" as="geometry" />
        </mxCell>
        <mxCell id="aFoQKnHjFwVq2BJ087v2-6" value="Worker 1" style="ellipse;whiteSpace=wrap;html=1;aspect=fixed;" parent="aFoQKnHjFwVq2BJ087v2-46" vertex="1">
          <mxGeometry x="46.07498688773512" y="40.004482758620696" width="80" height="80" as="geometry" />
        </mxCell>
        <mxCell id="aFoQKnHjFwVq2BJ087v2-18" style="edgeStyle=orthogonalEdgeStyle;rounded=0;orthogonalLoop=1;jettySize=auto;html=1;entryX=0;entryY=0.5;entryDx=0;entryDy=0;" parent="aFoQKnHjFwVq2BJ087v2-46" source="aFoQKnHjFwVq2BJ087v2-6" target="aFoQKnHjFwVq2BJ087v2-50" edge="1">
          <mxGeometry relative="1" as="geometry">
            <mxPoint x="161.43725226697734" y="55.25" as="targetPoint" />
          </mxGeometry>
        </mxCell>
        <mxCell id="aFoQKnHjFwVq2BJ087v2-50" value="Case Text Process" style="swimlane;horizontal=0;whiteSpace=wrap;html=1;fillColor=#ffe6cc;strokeColor=#d79b00;" parent="aFoQKnHjFwVq2BJ087v2-46" vertex="1">
          <mxGeometry x="180" y="10" width="770" height="140" as="geometry" />
        </mxCell>
        <mxCell id="aFoQKnHjFwVq2BJ087v2-25" value="Query EDW" style="rhombus;whiteSpace=wrap;html=1;fillColor=#fff2cc;strokeColor=#d6b656;" parent="aFoQKnHjFwVq2BJ087v2-50" vertex="1">
          <mxGeometry x="34.99504408425423" y="30" width="108.08106884239287" height="80" as="geometry" />
        </mxCell>
        <mxCell id="aFoQKnHjFwVq2BJ087v2-60" style="edgeStyle=orthogonalEdgeStyle;rounded=0;orthogonalLoop=1;jettySize=auto;html=1;exitX=1;exitY=0.5;exitDx=0;exitDy=0;entryX=0;entryY=0.5;entryDx=0;entryDy=0;" parent="aFoQKnHjFwVq2BJ087v2-50" source="aFoQKnHjFwVq2BJ087v2-28" target="aFoQKnHjFwVq2BJ087v2-35" edge="1">
          <mxGeometry relative="1" as="geometry" />
        </mxCell>
        <mxCell id="aFoQKnHjFwVq2BJ087v2-28" value="Pre-process Text Functions" style="ellipse;whiteSpace=wrap;html=1;fillColor=#fff2cc;strokeColor=#d6b656;" parent="aFoQKnHjFwVq2BJ087v2-50" vertex="1">
          <mxGeometry x="173.53626800136362" y="30" width="108.08106884239287" height="80" as="geometry" />
        </mxCell>
        <mxCell id="aFoQKnHjFwVq2BJ087v2-35" value="Load Pre-trained Models" style="shape=hexagon;perimeter=hexagonPerimeter2;whiteSpace=wrap;html=1;fixedSize=1;fillColor=#f8cecc;strokeColor=#b85450;" parent="aFoQKnHjFwVq2BJ087v2-50" vertex="1">
          <mxGeometry x="317.0798031698579" y="30" width="162.1216032635893" height="80" as="geometry" />
        </mxCell>
        <mxCell id="aFoQKnHjFwVq2BJ087v2-37" value="Score Narratives" style="ellipse;whiteSpace=wrap;html=1;fillColor=#d5e8d4;strokeColor=#82b366;" parent="aFoQKnHjFwVq2BJ087v2-50" vertex="1">
          <mxGeometry x="504.79277417338665" y="30" width="108.08106884239287" height="80" as="geometry" />
        </mxCell>
        <mxCell id="aFoQKnHjFwVq2BJ087v2-40" value="Write to Database" style="ellipse;whiteSpace=wrap;html=1;fillColor=#d5e8d4;strokeColor=#82b366;" parent="aFoQKnHjFwVq2BJ087v2-50" vertex="1">
          <mxGeometry x="637.2986057125904" y="30" width="108.08106884239287" height="80" as="geometry" />
        </mxCell>
        <mxCell id="aFoQKnHjFwVq2BJ087v2-29" value="" style="edgeStyle=orthogonalEdgeStyle;rounded=0;orthogonalLoop=1;jettySize=auto;html=1;" parent="aFoQKnHjFwVq2BJ087v2-50" source="aFoQKnHjFwVq2BJ087v2-25" target="aFoQKnHjFwVq2BJ087v2-28" edge="1">
          <mxGeometry relative="1" as="geometry" />
        </mxCell>
        <mxCell id="aFoQKnHjFwVq2BJ087v2-38" style="edgeStyle=orthogonalEdgeStyle;rounded=0;orthogonalLoop=1;jettySize=auto;html=1;exitX=1;exitY=0.5;exitDx=0;exitDy=0;entryX=0;entryY=0.5;entryDx=0;entryDy=0;" parent="aFoQKnHjFwVq2BJ087v2-50" source="aFoQKnHjFwVq2BJ087v2-35" target="aFoQKnHjFwVq2BJ087v2-37" edge="1">
          <mxGeometry relative="1" as="geometry" />
        </mxCell>
        <mxCell id="aFoQKnHjFwVq2BJ087v2-41" value="" style="edgeStyle=orthogonalEdgeStyle;rounded=0;orthogonalLoop=1;jettySize=auto;html=1;" parent="aFoQKnHjFwVq2BJ087v2-50" source="aFoQKnHjFwVq2BJ087v2-37" target="aFoQKnHjFwVq2BJ087v2-40" edge="1">
          <mxGeometry relative="1" as="geometry" />
        </mxCell>
        <mxCell id="aFoQKnHjFwVq2BJ087v2-36" value="&lt;font style=&quot;font-size: 17px;&quot;&gt;Single worker node shown for clarity&lt;/font&gt;" style="text;html=1;align=center;verticalAlign=middle;resizable=0;points=[];autosize=1;strokeColor=none;fillColor=none;" parent="aFoQKnHjFwVq2BJ087v2-14" vertex="1">
          <mxGeometry x="49.99751548028982" y="240" width="300" height="30" as="geometry" />
        </mxCell>
        <mxCell id="aFoQKnHjFwVq2BJ087v2-49" value="Join Databases" style="ellipse;whiteSpace=wrap;html=1;fillColor=#fff2cc;strokeColor=#d6b656;" parent="1" vertex="1">
          <mxGeometry x="755" y="760" width="120" height="80" as="geometry" />
        </mxCell>
        <mxCell id="aFoQKnHjFwVq2BJ087v2-48" style="edgeStyle=orthogonalEdgeStyle;rounded=0;orthogonalLoop=1;jettySize=auto;html=1;exitX=1;exitY=0.5;exitDx=0;exitDy=0;" parent="1" source="aFoQKnHjFwVq2BJ087v2-50" target="aFoQKnHjFwVq2BJ087v2-49" edge="1">
          <mxGeometry relative="1" as="geometry">
            <mxPoint x="1370" y="600" as="targetPoint" />
            <mxPoint x="1210" y="430" as="sourcePoint" />
          </mxGeometry>
        </mxCell>
        <mxCell id="aFoQKnHjFwVq2BJ087v2-58" style="edgeStyle=orthogonalEdgeStyle;rounded=0;orthogonalLoop=1;jettySize=auto;html=1;" parent="1" source="aFoQKnHjFwVq2BJ087v2-51" edge="1">
          <mxGeometry relative="1" as="geometry">
            <mxPoint x="210" y="520" as="targetPoint" />
          </mxGeometry>
        </mxCell>
        <mxCell id="aFoQKnHjFwVq2BJ087v2-51" value="Parameters" style="whiteSpace=wrap;html=1;aspect=fixed;" parent="1" vertex="1">
          <mxGeometry x="60" y="480" width="80" height="80" as="geometry" />
        </mxCell>
        <mxCell id="aFoQKnHjFwVq2BJ087v2-59" style="edgeStyle=orthogonalEdgeStyle;rounded=0;orthogonalLoop=1;jettySize=auto;html=1;exitX=1;exitY=0.5;exitDx=0;exitDy=0;" parent="1" source="aFoQKnHjFwVq2BJ087v2-53" edge="1">
          <mxGeometry relative="1" as="geometry">
            <mxPoint x="210" y="520" as="targetPoint" />
            <Array as="points">
              <mxPoint x="180" y="670" />
              <mxPoint x="180" y="520" />
            </Array>
          </mxGeometry>
        </mxCell>
        <mxCell id="aFoQKnHjFwVq2BJ087v2-53" value="Pre-trained models" style="shape=hexagon;perimeter=hexagonPerimeter2;whiteSpace=wrap;html=1;fixedSize=1;" parent="1" vertex="1">
          <mxGeometry x="40" y="630" width="120" height="80" as="geometry" />
        </mxCell>
      </root>
    </mxGraphModel>
  </diagram>
</mxfile>
